####
#
# OBJ File Generated by Meshlab
#
####
# Object ico_sphere.obj
#
# Vertices: 42
# Faces: 80
#
####
vn -0.000002 -1.000000 0.000000
v 0.020304 0.397834 0.561040
vn 0.723607 -0.447217 0.525727
v 0.743911 0.950615 1.086765
vn -0.276389 -0.447219 0.850649
v -0.256084 0.950614 1.411689
vn -0.894426 -0.447215 0.000000
v -0.874122 0.950619 0.561040
vn -0.276389 -0.447218 -0.850650
v -0.256084 0.950614 -0.289610
vn 0.723607 -0.447217 -0.525727
v 0.743911 0.950615 0.035314
vn 0.276389 0.447218 0.850650
v 0.296692 1.845054 1.411689
vn -0.723607 0.447217 0.525727
v -0.703303 1.845054 1.086765
vn -0.723607 0.447217 -0.525727
v -0.703303 1.845054 0.035314
vn 0.276389 0.447218 -0.850650
v 0.296692 1.845054 -0.289610
vn 0.894426 0.447215 0.000000
v 0.914730 1.845050 0.561040
vn 0.000001 1.000000 0.000000
v 0.020304 2.397834 0.561040
vn -0.162457 -0.850653 0.499997
v -0.142152 0.547180 1.061035
vn 0.425324 -0.850653 0.309013
v 0.445627 0.547180 0.870051
vn 0.262869 -0.525735 0.809013
v 0.283173 0.872097 1.370051
vn 0.850649 -0.525734 0.000000
v 0.870952 0.872098 0.561040
vn 0.425324 -0.850653 -0.309013
v 0.445627 0.547180 0.252028
vn -0.525730 -0.850651 0.000000
v -0.505426 0.547183 0.561040
vn -0.688189 -0.525734 0.499999
v -0.667885 0.872098 1.061037
vn -0.162457 -0.850653 -0.499996
v -0.142152 0.547180 0.061044
vn -0.688190 -0.525735 -0.499998
v -0.667885 0.872098 0.061043
vn 0.262869 -0.525735 -0.809013
v 0.283173 0.872097 -0.247972
vn 0.951057 -0.000000 0.309015
v 0.971362 1.397834 0.870052
vn 0.951057 -0.000000 -0.309015
v 0.971362 1.397834 0.252027
vn 0.000000 -0.000000 1.000000
v 0.020304 1.397834 1.561040
vn 0.587786 -0.000000 0.809016
v 0.608090 1.397834 1.370056
vn -0.951057 -0.000000 0.309015
v -0.930754 1.397834 0.870052
vn -0.587786 -0.000000 0.809016
v -0.567482 1.397834 1.370056
vn -0.587786 -0.000000 -0.809016
v -0.567482 1.397834 -0.247977
vn -0.951057 -0.000000 -0.309015
v -0.930754 1.397834 0.252027
vn 0.587786 0.000000 -0.809016
v 0.608090 1.397834 -0.247977
vn 0.000000 -0.000000 -1.000000
v 0.020304 1.397834 -0.438960
vn 0.688189 0.525734 0.499999
v 0.708493 1.923571 1.061037
vn -0.262869 0.525735 0.809013
v -0.242565 1.923572 1.370051
vn -0.850649 0.525734 0.000000
v -0.830344 1.923570 0.561040
vn -0.262869 0.525735 -0.809013
v -0.242565 1.923572 -0.247972
vn 0.688189 0.525735 -0.499998
v 0.708493 1.923571 0.061043
vn 0.162456 0.850654 0.499996
v 0.182759 2.248489 1.061035
vn 0.525730 0.850652 0.000000
v 0.546034 2.248486 0.561040
vn -0.425324 0.850653 0.309013
v -0.405019 2.248488 0.870051
vn -0.425324 0.850653 -0.309013
v -0.405019 2.248488 0.252028
vn 0.162456 0.850654 -0.499996
v 0.182759 2.248489 0.061044
# 42 vertices, 0 vertices normals

f 1//1 14//14 13//13
f 2//2 14//14 16//16
f 1//1 13//13 18//18
f 1//1 18//18 20//20
f 1//1 20//20 17//17
f 2//2 16//16 23//23
f 3//3 15//15 25//25
f 4//4 19//19 27//27
f 5//5 21//21 29//29
f 6//6 22//22 31//31
f 2//2 23//23 26//26
f 3//3 25//25 28//28
f 4//4 27//27 30//30
f 5//5 29//29 32//32
f 6//6 31//31 24//24
f 7//7 33//33 38//38
f 8//8 34//34 40//40
f 9//9 35//35 41//41
f 10//10 36//36 42//42
f 11//11 37//37 39//39
f 39//39 42//42 12//12
f 39//39 37//37 42//42
f 37//37 10//10 42//42
f 42//42 41//41 12//12
f 42//42 36//36 41//41
f 36//36 9//9 41//41
f 41//41 40//40 12//12
f 41//41 35//35 40//40
f 35//35 8//8 40//40
f 40//40 38//38 12//12
f 40//40 34//34 38//38
f 34//34 7//7 38//38
f 38//38 39//39 12//12
f 38//38 33//33 39//39
f 33//33 11//11 39//39
f 24//24 37//37 11//11
f 24//24 31//31 37//37
f 31//31 10//10 37//37
f 32//32 36//36 10//10
f 32//32 29//29 36//36
f 29//29 9//9 36//36
f 30//30 35//35 9//9
f 30//30 27//27 35//35
f 27//27 8//8 35//35
f 28//28 34//34 8//8
f 28//28 25//25 34//34
f 25//25 7//7 34//34
f 26//26 33//33 7//7
f 26//26 23//23 33//33
f 23//23 11//11 33//33
f 31//31 32//32 10//10
f 31//31 22//22 32//32
f 22//22 5//5 32//32
f 29//29 30//30 9//9
f 29//29 21//21 30//30
f 21//21 4//4 30//30
f 27//27 28//28 8//8
f 27//27 19//19 28//28
f 19//19 3//3 28//28
f 25//25 26//26 7//7
f 25//25 15//15 26//26
f 15//15 2//2 26//26
f 23//23 24//24 11//11
f 23//23 16//16 24//24
f 16//16 6//6 24//24
f 17//17 22//22 6//6
f 17//17 20//20 22//22
f 20//20 5//5 22//22
f 20//20 21//21 5//5
f 20//20 18//18 21//21
f 18//18 4//4 21//21
f 18//18 19//19 4//4
f 18//18 13//13 19//19
f 13//13 3//3 19//19
f 16//16 17//17 6//6
f 16//16 14//14 17//17
f 14//14 1//1 17//17
f 13//13 15//15 3//3
f 13//13 14//14 15//15
f 14//14 2//2 15//15
# 80 faces, 0 coords texture

# End of File
