####
#
# OBJ File Generated by Meshlab
#
####
# Object shalrath.obj
#
# Vertices: 208
# Faces: 414
#
####
vn -0.637570 -0.460840 -0.617358
v 8.704240 7.882649 -17.902100
vn -0.731055 -0.356355 -0.581867
v 7.203510 9.218750 -16.169601
vn -0.032844 0.827937 -0.559858
v 8.404090 11.089149 -16.169601
vn -0.066423 0.825072 -0.561110
v 10.204980 10.554750 -17.902100
vn -0.686575 -0.404583 -0.604093
v 2.401160 11.356449 -12.704700
vn -0.026276 0.725995 -0.687198
v 4.202042 14.028549 -12.704700
vn -0.140598 -0.813643 0.564107
v 9.904830 7.348249 -15.592200
vn -0.045480 -0.864618 0.500366
v 8.404090 8.417050 -14.437201
vn 0.044781 -0.899479 0.434663
v 3.901894 10.287550 -9.817301
vn -0.142056 -0.848577 0.509643
v 3.001453 10.821949 -8.662300
vn -0.909306 -0.163417 -0.382696
v 0.600280 12.692450 -11.261001
vn -0.092046 0.689308 -0.718598
v 3.301601 14.830151 -11.838500
vn -0.838859 0.117301 -0.531560
v -0.000020 16.166149 -7.218580
vn -0.117983 -0.761033 -0.637893
v 2.701305 12.959650 -6.063611
vn -0.115758 0.916685 -0.382476
v 2.701305 18.838249 -8.084810
vn 0.068671 0.996358 -0.050550
v 3.001453 18.838249 -5.486120
vn -0.869733 0.298349 -0.393132
v -1.800900 16.700649 -5.774870
vn -0.926547 0.375684 0.019287
v -0.000020 17.502251 1.443731
vn -0.819815 0.560162 -0.118837
v 0.900420 19.105551 1.154984
vn -0.038675 0.984663 0.170127
v 2.701305 18.571051 8.951070
vn -0.168713 0.209170 0.963215
v 3.901894 19.372749 3.753680
vn -0.966914 -0.254470 0.017965
v 0.900420 20.174351 1.443731
vn 0.392086 0.859792 0.327148
v 4.202042 18.303850 4.331170
vn -0.873108 0.253666 0.416336
v -1.500750 16.166149 9.239810
vn -0.793926 0.190068 0.577543
v 0.600280 15.898951 10.683530
vn -0.123343 0.883998 0.450927
v 2.701305 18.303850 11.838500
vn -0.862879 -0.427923 0.268926
v -0.000020 10.020350 5.774879
vn -0.215855 -0.453923 0.864500
v 2.701305 8.951550 8.373579
vn 0.038326 0.525258 0.850080
v 7.803800 3.607350 8.662319
vn -0.968815 -0.247370 0.014366
v -0.900460 9.485950 1.443731
vn 0.198581 -0.759098 0.619949
v 3.001453 12.959650 9.528550
vn -0.199902 -0.795043 -0.572666
v 3.001453 10.821949 11.838500
vn -0.922627 -0.202808 0.328067
v 0.900420 12.425249 14.437200
vn -0.247751 0.640535 0.726866
v 3.001453 14.295750 15.303400
vn -0.710895 -0.440232 0.548474
v 2.701305 11.089149 15.880899
vn 0.016899 -0.832459 -0.553828
v 4.202042 10.020350 12.993500
vn -0.115274 0.656759 0.745238
v 4.202042 13.494049 16.458401
vn -0.144658 0.634471 0.759289
v 8.704240 9.753149 19.634598
vn -0.785678 -0.399894 0.472011
v 8.103951 7.882649 19.345798
vn -0.226890 0.837273 0.497488
v 10.505119 9.218750 20.789600
vn -0.722614 -0.509977 0.466640
v 9.004390 6.546650 20.789600
vn -0.110150 -0.769627 -0.628920
v 8.704240 7.615450 17.613400
vn -0.099332 0.647915 0.755208
v 13.206450 8.684350 23.388298
vn -0.030468 -0.719417 -0.693910
v 10.204980 6.546650 18.190899
vn 0.123832 -0.827261 -0.548001
v 14.707150 4.943350 21.078300
vn -0.380364 -0.580830 0.719694
v 14.106850 5.210550 22.521999
vn 0.133781 -0.820061 -0.556420
v 15.607650 4.676150 21.655800
vn -0.410322 -0.542276 0.733194
v 15.007350 4.943350 22.810799
vn 0.916034 -0.384472 0.114291
v 14.707150 6.813849 22.521999
vn 0.216841 0.667392 0.712438
v 15.907750 6.012150 22.810799
vn 0.793820 -0.404507 0.454119
v 19.209351 3.607350 24.254501
vn -0.294246 -0.702759 0.647726
v 12.606150 6.813849 22.810799
vn -0.354961 -0.746364 0.562977
v 14.407050 6.546650 23.676998
vn 0.376631 -0.568964 -0.731047
v 15.307450 6.813849 22.810799
vn 0.831354 -0.262076 0.490069
v 19.509550 5.744950 25.986900
vn 0.075656 0.670734 0.737829
v 14.707150 7.882649 23.676998
vn -0.832003 -0.445207 -0.331002
v -0.000020 9.485950 -2.887430
vn -0.074444 0.514178 -0.854446
v 7.203510 3.607350 -5.486120
vn -0.971516 0.233319 0.041460
v 1.500720 2.805670 1.443731
vn -0.166754 -0.305136 -0.937595
v 2.701305 9.485950 -5.197381
vn -0.439111 0.897642 -0.037681
v -1.200600 -0.668070 1.154984
vn -0.497199 0.125477 0.858515
v 2.701305 -4.943430 6.063630
vn -0.798215 -0.123053 0.589671
v 5.702770 -3.874590 12.127200
vn -0.461004 0.065015 -0.885013
v 2.701305 -5.477860 -3.464911
vn -0.207780 0.099297 -0.973123
v -0.900460 -5.210650 -3.176170
vn -0.211534 0.267889 -0.939941
v -14.407049 -2.004120 -2.021200
vn -0.580854 0.814006 0.001909
v -16.207951 0.400770 1.154984
vn -0.088626 -0.830655 -0.549690
v 6.303070 -12.959750 -3.753660
vn -0.788344 -0.084134 -0.609455
v 5.702770 -2.805750 -9.817301
vn 0.066252 -0.697596 -0.713421
v 9.304541 -7.348329 -6.929840
vn -0.554809 -0.831889 -0.012176
v -1.200600 -10.287640 1.154984
vn 0.163735 0.983506 0.076861
v 10.505119 2.004040 -8.373560
vn 0.110023 0.868594 -0.483156
v 15.907750 3.874550 -20.500801
vn -0.752226 0.229934 -0.617484
v 13.506590 1.736830 -20.500801
vn 0.429182 0.142976 -0.891830
v 20.409950 -14.295800 -27.141899
vn -0.807933 -0.122240 -0.576457
v 18.909250 -14.830220 -26.564400
vn 0.031541 -0.994812 0.096716
v 20.409950 -29.794050 -24.254501
vn -0.360103 -0.245961 0.899905
v 19.509550 -15.364640 -24.254501
vn -0.187373 -0.968220 0.165653
v 15.007350 -0.668070 -18.479599
vn -0.153321 0.251287 0.955692
v -13.806749 -2.004120 4.619910
vn -0.989133 0.143913 -0.030092
v -21.010250 -15.097430 1.154984
vn -0.158249 -0.110754 0.981168
v -19.509550 -15.899060 3.464940
vn -0.147990 -0.093030 -0.984604
v -19.509550 -15.899060 -0.866220
vn -0.242575 0.110547 0.963814
v -1.200600 -4.943430 5.774879
vn -0.078482 -0.807514 0.584604
v 6.303070 -12.692540 6.641119
vn -0.051331 -0.998661 -0.006432
v -20.109850 -30.595650 1.154984
vn 0.257353 0.964684 0.056161
v 10.805270 1.202410 11.261000
vn -0.793364 0.090634 0.601963
v 13.506590 -1.469700 23.965698
vn 0.103081 0.782141 0.614517
v 16.207951 1.469620 24.543201
vn -0.003839 -0.751348 0.659895
v 8.704240 -7.882750 9.239810
vn -0.121673 -0.917923 -0.377641
v 15.307450 -3.607380 21.078300
vn -0.430318 -0.136442 -0.892306
v 17.708649 -16.700691 24.254501
vn -0.826739 -0.147189 0.542990
v 16.808250 -16.433479 26.564400
vn 0.395299 -0.016455 0.918405
v 19.209351 -16.433479 27.141899
vn 0.005094 -0.988806 -0.149117
v 18.609051 -31.931650 23.388298
vn -0.094841 -0.555597 -0.826025
v 4.502186 20.975950 -0.577480
vn 0.020940 0.212170 -0.977008
v 3.901894 19.105551 -0.577480
vn -0.031238 -0.525392 0.850287
v 4.802330 20.975950 3.753680
vn -0.771708 -0.635975 -0.001102
v -0.000020 21.510450 1.443731
vn -0.007814 -0.338421 -0.940962
v 4.202042 23.113649 -1.732450
vn -0.946524 -0.322498 -0.009356
v -1.500750 25.518549 1.443731
vn -0.091103 -0.049870 -0.994592
v 3.301601 26.052950 -2.598680
vn -0.990308 0.136945 -0.023146
v -2.101040 28.190649 1.443731
vn -0.024628 0.494855 -0.868627
v 3.001453 29.526751 -1.732450
vn -0.097901 -0.098178 0.990342
v 3.301601 26.320150 5.774879
vn -0.058967 0.489215 0.870168
v 3.001453 29.526751 5.197400
vn -0.680873 0.731489 -0.036554
v -0.600310 30.862749 1.443731
vn 0.059172 0.997331 -0.042784
v 3.001453 31.931650 1.443731
vn -0.038931 -0.327018 0.944216
v 4.202042 23.113649 4.619910
vn 0.398406 0.863999 -0.307861
v 3.601746 18.036650 -1.154960
vn 0.803917 0.397959 -0.441979
v 14.407050 7.348249 -18.190800
vn -0.234114 -0.539396 -0.808853
v 13.806750 6.012150 -18.479599
vn -0.092640 -0.825750 0.556376
v 14.106850 5.744950 -17.035900
vn -0.260557 -0.371780 -0.891005
v 12.606150 8.417050 -19.057102
vn 0.283273 0.605375 -0.743827
v 13.506590 9.218750 -19.345798
vn 0.298233 0.656152 -0.693197
v 15.307450 6.813849 -18.479599
vn -0.257416 -0.572193 -0.778674
v 14.707150 5.744950 -18.479599
vn 0.002802 -0.817907 0.575344
v 15.007350 5.477750 -17.324600
vn 0.850808 -0.468949 -0.237090
v 18.308950 4.408950 -18.768299
vn -0.375762 -0.533421 0.757803
v 14.106850 7.081050 -18.190800
vn 0.617259 0.488815 0.616483
v 10.505119 10.020350 -15.014701
vn 0.770562 0.262398 0.580845
v 9.604680 10.287550 -14.148400
vn 0.784233 0.511817 0.350745
v 6.303070 13.761351 -10.106000
vn 0.580422 0.371333 0.724722
v 14.707150 7.081050 -16.747101
vn 0.608582 0.743323 0.277666
v 13.506590 9.218750 -18.190800
vn 0.657609 0.436327 0.614141
v 15.607650 6.546650 -17.324600
vn 0.663917 0.432408 0.610113
v 14.707150 7.882649 -18.479599
vn 0.977941 -0.030890 0.206585
v 6.002920 13.761351 -9.528501
vn 0.977315 0.163069 -0.135141
v 6.603210 16.166149 -7.218580
vn 0.963389 0.181986 -0.196880
v 6.603210 16.166149 -6.063611
vn 0.822140 0.541217 -0.176552
v 6.603210 16.433451 -4.331141
vn 0.560474 0.047938 -0.826783
v 6.002920 9.753149 -3.176170
vn 0.852718 0.359361 -0.379119
v 8.704240 14.830151 -1.732450
vn 0.798723 0.599922 -0.046212
v 6.603210 17.235050 1.443731
vn 0.819777 0.227236 -0.525671
v 10.505119 9.485950 -1.154960
vn 0.823970 0.449398 -0.345131
v 12.306010 2.805670 -1.154960
vn 0.885600 0.336097 0.320549
v 8.704240 14.830151 4.619910
vn 0.795821 -0.604106 -0.041527
v 6.603210 18.571051 1.443731
vn 0.865083 0.449881 0.221899
v 7.203510 16.166149 7.507349
vn 0.775665 0.180645 0.604741
v 10.505119 9.753149 4.331170
vn 0.584259 0.029579 0.811028
v 6.303070 9.753149 5.486140
vn 0.881846 0.308381 0.356720
v 6.903360 16.166149 9.239810
vn 0.978212 0.040464 0.203625
v 6.603210 15.631750 10.683530
vn 0.950449 0.305487 -0.057664
v 6.002920 14.028549 12.993500
vn 0.819158 0.458324 -0.344847
v 6.603210 13.494049 13.571000
vn 0.737092 0.423811 -0.526383
v 9.604680 9.753149 17.324600
vn 0.541400 0.500569 -0.675512
v 11.705710 8.951550 18.190899
vn 0.739075 0.441758 -0.508545
v 15.607650 6.546650 21.078300
vn 0.731717 0.571640 -0.371239
v 14.407050 8.417050 21.655800
vn 0.774393 0.404532 -0.486486
v 16.207951 6.012150 21.655800
vn 0.842931 0.444538 0.303073
v 12.306010 2.538460 3.464940
vn 0.920539 -0.116131 0.372991
v 16.808250 -4.943430 5.486140
vn 0.892790 -0.107309 -0.437505
v 16.808250 -4.943430 -3.753660
vn 0.911654 -0.196587 0.360888
v 13.506590 -4.409010 8.662319
vn 0.946661 0.302510 -0.111000
v 18.909250 -0.668070 21.655800
vn 0.965013 -0.014558 -0.261796
v 20.409950 -16.433479 25.120701
vn 0.878698 0.110802 -0.464340
v 13.506590 -3.340170 -5.774870
vn 0.630189 -0.776393 -0.008650
v 9.004390 19.639950 1.443731
vn 0.480588 -0.615227 0.624925
v 8.103951 20.441549 2.598700
vn 0.998736 0.049297 -0.009799
v 9.304541 23.648050 1.443731
vn 0.784021 0.213429 0.582888
v 8.404090 22.846451 2.309960
vn 0.961503 -0.061614 -0.267799
v 9.004390 21.777651 3.464940
vn -0.275666 -0.923758 0.265854
v 7.503650 21.243151 3.753680
vn 0.456577 0.702339 0.546129
v 8.704240 22.312050 4.619910
vn 0.638452 0.312192 0.703502
v 9.304541 20.174351 5.486140
vn 0.492686 -0.082831 0.866256
v 6.903360 23.648050 3.464940
vn 0.034877 0.487654 0.872340
v 6.903360 22.579250 3.464940
vn 0.677959 0.103997 0.727706
v 7.503650 26.320150 3.464940
vn 0.966455 0.250483 -0.056768
v 8.404090 26.320150 1.443731
vn 0.782508 0.622513 0.012604
v 7.803800 29.793951 1.732473
vn 0.650088 0.156650 -0.743536
v 7.503650 26.052950 -0.288730
vn 0.463678 -0.066648 -0.883493
v 6.903360 23.648050 -0.577480
vn 0.814607 0.267208 -0.514797
v 8.404090 22.579250 0.577497
vn 0.557152 -0.527204 -0.641589
v 8.404090 20.441549 0.577497
vn 0.905719 -0.125228 0.404958
v 9.004390 21.510450 0.000010
vn 0.470525 0.833506 -0.289610
v 8.704240 22.312050 -0.866220
vn 0.217047 0.545085 -0.809798
v 7.503650 22.579250 -0.288730
vn -0.068570 -0.264205 -0.962026
v 6.002920 21.243151 -0.577480
vn -0.217309 -0.923771 -0.315317
v 7.503650 20.975950 -0.577480
vn -0.572148 -0.774471 0.269890
v 8.704240 19.907150 -2.021200
vn 0.804349 -0.095341 0.586457
v 9.904830 20.441549 -1.732450
vn -0.693155 -0.586971 0.418331
v 9.904830 18.303850 -2.887430
vn 0.602207 -0.145324 0.785002
v 10.505119 18.571051 -2.598680
vn 0.631678 0.600923 -0.489770
v 9.904830 20.708750 -2.598680
vn 0.370516 -0.901633 -0.223107
v 11.405560 15.631750 -3.753660
vn 0.781643 0.364230 -0.506330
v 10.505119 18.838249 -3.176170
vn 0.202142 -0.261828 0.943708
v 5.702770 21.243151 3.464940
vn 0.793548 -0.151543 -0.589335
v 9.304541 20.174351 4.619910
vn 0.696519 0.141620 0.703424
v 9.604680 18.303850 5.774879
vn -0.598131 -0.541368 -0.590898
v 8.103951 19.907150 4.619910
vn -0.658444 -0.382758 -0.648034
v 8.704240 18.036650 5.197400
vn 0.708519 -0.074866 -0.701710
v 9.604680 18.036650 5.197400
vn 0.220013 -0.971680 0.086209
v 9.904830 14.830151 5.774879
vn 0.486671 0.616904 -0.618531
v 14.707150 8.149850 -19.345798
vn 0.758354 -0.617521 -0.208725
v 18.308950 4.408950 -19.923302
vn -0.450048 -0.458317 -0.766422
v 14.106850 7.348249 -19.345798
vn 0.722355 0.502064 -0.475536
v 15.307450 7.615450 22.810799
vn -0.510353 0.337542 -0.790952
v 7.503650 21.777651 -1.443710
vn -0.544459 0.145494 -0.826073
v 8.704240 20.441549 -2.887430
vn -0.433404 -0.094266 -0.896256
v 9.904830 18.571051 -3.464911
vn 0.336648 -0.941542 0.012895
v 9.004390 -12.959750 1.154984
vn 0.269251 -0.956064 -0.115955
v -12.005850 -4.943430 0.866243
vn 0.954491 -0.295792 -0.038121
v -17.708651 -16.700691 1.154984
vn 0.965266 0.026195 0.259951
v 21.010250 -14.563010 -25.120701
vn 0.930886 0.332725 0.150818
v 18.308950 2.004040 -18.479599
vn -0.674028 -0.176334 0.717351
v 8.704240 18.036650 5.774879
vn -0.685361 -0.041947 0.726994
v 8.103951 19.907150 5.486140
vn -0.532836 0.331281 0.778678
v 7.203510 22.044849 4.619910
# 208 vertices, 0 vertices normals

f 1//1 2//2 3//3
f 3//3 4//4 1//1
f 5//5 6//6 3//3
f 3//3 2//2 5//5
f 7//7 8//8 2//2
f 9//9 5//5 2//2
f 2//2 8//8 9//9
f 10//10 11//11 5//5
f 6//6 5//5 11//11
f 5//5 9//9 10//10
f 11//11 12//12 6//6
f 12//12 11//11 13//13
f 11//11 10//10 14//14
f 13//13 15//15 12//12
f 15//15 13//13 16//16
f 13//13 17//17 16//16
f 17//17 13//13 14//14
f 14//14 13//13 11//11
f 16//16 17//17 18//18
f 19//19 16//16 18//18
f 20//20 19//19 18//18
f 21//21 22//22 19//19
f 19//19 23//23 21//21
f 20//20 24//24 25//25
f 20//20 18//18 24//24
f 26//26 20//20 25//25
f 27//27 24//24 18//18
f 24//24 27//27 28//28
f 25//25 24//24 28//28
f 29//29 27//27 30//30
f 29//29 28//28 27//27
f 18//18 30//30 27//27
f 28//28 31//31 25//25
f 31//31 32//32 33//33
f 34//34 33//33 35//35
f 33//33 32//32 36//36
f 36//36 35//35 33//33
f 25//25 33//33 34//34
f 34//34 26//26 25//25
f 35//35 37//37 34//34
f 38//38 37//37 35//35
f 39//39 35//35 36//36
f 35//35 39//39 38//38
f 40//40 38//38 39//39
f 41//41 39//39 42//42
f 39//39 41//41 40//40
f 36//36 42//42 39//39
f 43//43 40//40 41//41
f 42//42 44//44 41//41
f 41//41 44//44 45//45
f 45//45 46//46 41//41
f 45//45 47//47 48//48
f 48//48 46//46 45//45
f 41//41 46//46 49//49
f 46//46 48//48 50//50
f 50//50 49//49 46//46
f 47//47 51//51 48//48
f 48//48 51//51 50//50
f 52//52 41//41 49//49
f 41//41 52//52 43//43
f 53//53 52//52 49//49
f 54//54 55//55 53//53
f 49//49 54//54 53//53
f 56//56 43//43 52//52
f 52//52 53//53 56//56
f 53//53 55//55 56//56
f 30//30 57//57 58//58
f 58//58 59//59 30//30
f 30//30 59//59 29//29
f 57//57 30//30 18//18
f 17//17 60//60 57//57
f 18//18 17//17 57//57
f 57//57 60//60 58//58
f 14//14 60//60 17//17
f 61//61 62//62 29//29
f 29//29 62//62 63//63
f 29//29 59//59 61//61
f 59//59 58//58 61//61
f 64//64 61//61 58//58
f 61//61 64//64 65//65
f 61//61 65//65 66//66
f 66//66 67//67 61//61
f 65//65 64//64 68//68
f 69//69 64//64 58//58
f 70//70 68//68 64//64
f 68//68 71//71 65//65
f 58//58 72//72 69//69
f 72//72 73//73 74//74
f 74//74 69//69 72//72
f 73//73 75//75 76//76
f 76//76 74//74 73//73
f 77//77 76//76 75//75
f 74//74 76//76 78//78
f 77//77 78//78 76//76
f 78//78 79//79 74//74
f 69//69 74//74 79//79
f 79//79 70//70 69//69
f 64//64 69//69 70//70
f 61//61 67//67 80//80
f 67//67 81//81 82//82
f 67//67 66//66 83//83
f 82//82 80//80 67//67
f 80//80 84//84 61//61
f 61//61 84//84 62//62
f 85//85 62//62 84//84
f 86//86 82//82 81//81
f 83//83 86//86 81//81
f 83//83 81//81 67//67
f 63//63 87//87 29//29
f 87//87 63//63 88//88
f 88//88 89//89 87//87
f 63//63 90//90 91//91
f 91//91 88//88 63//63
f 90//90 63//63 62//62
f 88//88 91//91 92//92
f 89//89 88//88 93//93
f 92//92 93//93 88//88
f 93//93 94//94 89//89
f 93//93 95//95 94//94
f 92//92 95//95 93//93
f 62//62 85//85 90//90
f 96//96 97//97 22//22
f 98//98 99//99 22//22
f 19//19 22//22 97//97
f 22//22 99//99 96//96
f 22//22 21//21 98//98
f 100//100 96//96 99//99
f 99//99 101//101 100//100
f 102//102 100//100 101//101
f 101//101 103//103 102//102
f 104//104 102//102 103//103
f 103//103 105//105 106//106
f 103//103 107//107 104//104
f 106//106 107//107 103//103
f 105//105 103//103 101//101
f 108//108 104//104 107//107
f 101//101 109//109 105//105
f 109//109 101//101 99//99
f 99//99 98//98 109//109
f 108//108 107//107 106//106
f 97//97 110//110 19//19
f 2//2 1//1 7//7
f 111//111 112//112 1//1
f 1//1 112//112 113//113
f 1//1 114//114 111//111
f 1//1 4//4 115//115
f 7//7 1//1 113//113
f 111//111 116//116 117//117
f 117//117 112//112 111//111
f 118//118 113//113 112//112
f 112//112 117//117 118//118
f 117//117 119//119 118//118
f 116//116 119//119 117//117
f 120//120 111//111 114//114
f 121//121 4//4 3//3
f 3//3 122//122 121//121
f 123//123 122//122 3//3
f 121//121 115//115 4//4
f 121//121 124//124 111//111
f 121//121 113//113 124//124
f 113//113 121//121 7//7
f 125//125 121//121 111//111
f 122//122 7//7 121//121
f 124//124 113//113 118//118
f 111//111 124//124 126//126
f 118//118 126//126 124//124
f 111//111 120//120 127//127
f 126//126 116//116 111//111
f 116//116 126//126 119//119
f 126//126 118//118 119//119
f 122//122 8//8 7//7
f 122//122 123//123 9//9
f 9//9 8//8 122//122
f 123//123 6//6 12//12
f 3//3 6//6 123//123
f 12//12 128//128 123//123
f 9//9 123//123 128//128
f 128//128 10//10 9//9
f 128//128 129//129 14//14
f 14//14 10//10 128//128
f 129//129 128//128 12//12
f 129//129 15//15 16//16
f 14//14 129//129 130//130
f 12//12 15//15 129//129
f 16//16 130//130 129//129
f 110//110 131//131 16//16
f 131//131 130//130 16//16
f 110//110 16//16 19//19
f 130//130 131//131 132//132
f 130//130 60//60 14//14
f 132//132 60//60 130//130
f 132//132 131//131 133//133
f 134//134 133//133 131//131
f 131//131 110//110 134//134
f 132//132 135//135 136//136
f 58//58 60//60 132//132
f 136//136 58//58 132//132
f 133//133 135//135 132//132
f 135//135 133//133 137//137
f 137//137 133//133 134//134
f 138//138 134//134 110//110
f 137//137 134//134 139//139
f 134//134 23//23 139//139
f 137//137 140//140 135//135
f 137//137 139//139 141//141
f 141//141 140//140 137//137
f 141//141 139//139 142//142
f 142//142 139//139 20//20
f 20//20 139//139 23//23
f 23//23 19//19 20//20
f 138//138 21//21 23//23
f 20//20 26//26 143//143
f 143//143 142//142 20//20
f 143//143 26//26 34//34
f 142//142 143//143 31//31
f 28//28 142//142 31//31
f 142//142 28//28 141//141
f 144//144 32//32 31//31
f 31//31 143//143 144//144
f 144//144 34//34 37//37
f 32//32 144//144 145//145
f 34//34 144//144 143//143
f 145//145 36//36 32//32
f 145//145 37//37 38//38
f 36//36 145//145 146//146
f 37//37 145//145 144//144
f 38//38 146//146 145//145
f 146//146 42//42 36//36
f 40//40 147//147 146//146
f 42//42 146//146 147//147
f 146//146 38//38 40//40
f 147//147 44//44 42//42
f 147//147 148//148 45//45
f 147//147 49//49 148//148
f 49//49 147//147 149//149
f 43//43 147//147 40//40
f 44//44 147//147 45//45
f 148//148 49//49 50//50
f 45//45 148//148 150//150
f 50//50 150//150 148//148
f 150//150 47//47 45//45
f 47//47 150//150 51//51
f 150//150 50//50 51//51
f 151//151 140//140 141//141
f 29//29 141//141 28//28
f 141//141 29//29 151//151
f 136//136 151//151 152//152
f 151//151 29//29 152//152
f 140//140 151//151 136//136
f 136//136 135//135 140//140
f 58//58 136//136 153//153
f 152//152 153//153 136//136
f 154//154 152//152 29//29
f 29//29 87//87 154//154
f 87//87 89//89 155//155
f 156//156 155//155 89//89
f 92//92 91//91 155//155
f 155//155 156//156 92//92
f 155//155 154//154 87//87
f 89//89 94//94 156//156
f 95//95 156//156 94//94
f 95//95 92//92 156//156
f 91//91 90//90 154//154
f 154//154 155//155 91//91
f 58//58 153//153 157//157
f 157//157 72//72 58//58
f 23//23 134//134 138//138
f 21//21 138//138 158//158
f 110//110 97//97 138//138
f 158//158 98//98 21//21
f 98//98 158//158 159//159
f 158//158 160//160 161//161
f 161//161 159//159 158//158
f 159//159 162//162 163//163
f 162//162 164//164 165//165
f 162//162 161//161 164//164
f 161//161 162//162 159//159
f 166//166 167//167 161//161
f 161//161 160//160 166//166
f 109//109 166//166 168//168
f 166//166 109//109 98//98
f 168//168 166//166 160//160
f 168//168 105//105 109//109
f 160//160 169//169 168//168
f 168//168 169//169 170//170
f 168//168 170//170 106//106
f 168//168 106//106 105//105
f 170//170 169//169 171//171
f 171//171 169//169 160//160
f 108//108 170//170 104//104
f 104//104 170//170 171//171
f 171//171 172//172 100//100
f 160//160 172//172 171//171
f 100//100 102//102 171//171
f 104//104 171//171 102//102
f 100//100 172//172 96//96
f 172//172 160//160 173//173
f 173//173 160//160 158//158
f 174//174 175//175 173//173
f 158//158 174//174 173//173
f 176//176 173//173 175//175
f 173//173 177//177 172//172
f 174//174 158//158 96//96
f 96//96 178//178 174//174
f 175//175 174//174 179//179
f 180//180 181//181 175//175
f 175//175 179//179 180//180
f 176//176 175//175 181//181
f 181//181 180//180 182//182
f 182//182 183//183 181//181
f 181//181 184//184 176//176
f 184//184 181//181 183//183
f 182//182 185//185 183//183
f 183//183 186//186 184//184
f 183//183 185//185 186//186
f 97//97 96//96 158//158
f 158//158 138//138 97//97
f 96//96 172//172 177//177
f 108//108 106//106 170//170
f 98//98 187//187 167//167
f 165//165 188//188 162//162
f 188//188 165//165 189//189
f 162//162 188//188 190//190
f 191//191 190//190 188//188
f 189//189 192//192 188//188
f 188//188 192//192 191//191
f 190//190 163//163 162//162
f 193//193 191//191 192//192
f 189//189 193//193 192//192
f 114//114 115//115 194//194
f 194//194 195//195 196//196
f 194//194 196//196 114//114
f 114//114 196//196 120//120
f 195//195 120//120 196//196
f 115//115 114//114 1//1
f 115//115 125//125 127//127
f 127//127 194//194 115//115
f 195//195 127//127 120//120
f 127//127 195//195 194//194
f 127//127 125//125 111//111
f 115//115 121//121 125//125
f 197//197 54//54 49//49
f 49//49 149//149 197//197
f 56//56 197//197 149//149
f 54//54 197//197 55//55
f 197//197 56//56 55//55
f 149//149 43//43 56//56
f 43//43 149//149 147//147
f 177//177 178//178 96//96
f 177//177 198//198 178//178
f 177//177 176//176 198//198
f 199//199 198//198 176//176
f 176//176 184//184 199//199
f 200//200 199//199 184//184
f 184//184 186//186 200//200
f 185//185 200//200 186//186
f 201//201 71//71 68//68
f 153//153 68//68 70//70
f 201//201 68//68 153//153
f 152//152 85//85 201//201
f 201//201 153//153 152//152
f 201//201 85//85 71//71
f 70//70 157//157 153//153
f 90//90 85//85 152//152
f 152//152 154//154 90//90
f 84//84 80//80 202//202
f 202//202 71//71 84//84
f 203//203 202//202 80//80
f 80//80 82//82 203//203
f 86//86 203//203 82//82
f 65//65 71//71 202//202
f 66//66 202//202 203//203
f 202//202 66//66 65//65
f 203//203 83//83 66//66
f 203//203 86//86 83//83
f 204//204 77//77 75//75
f 204//204 75//75 73//73
f 78//78 77//77 204//204
f 73//73 205//205 204//204
f 78//78 204//204 205//205
f 205//205 79//79 78//78
f 72//72 157//157 205//205
f 205//205 73//73 72//72
f 157//157 70//70 79//79
f 79//79 205//205 157//157
f 206//206 207//207 190//190
f 163//163 190//190 207//207
f 190//190 191//191 206//206
f 193//193 206//206 191//191
f 207//207 208//208 163//163
f 178//178 179//179 174//174
f 198//198 179//179 178//178
f 180//180 179//179 198//198
f 198//198 199//199 180//180
f 182//182 180//180 199//199
f 199//199 200//200 182//182
f 185//185 182//182 200//200
f 33//33 25//25 31//31
f 84//84 71//71 85//85
f 159//159 163//163 187//187
f 163//163 208//208 187//187
f 187//187 208//208 167//167
f 96//96 158//158 98//98
f 98//98 99//99 96//96
f 159//159 187//187 98//98
f 207//207 165//165 164//164
f 164//164 208//208 207//207
f 164//164 167//167 208//208
f 165//165 207//207 206//206
f 206//206 189//189 165//165
f 206//206 193//193 189//189
f 167//167 164//164 161//161
f 173//173 176//176 177//177
f 167//167 166//166 98//98
# 414 faces, 0 coords texture

# End of File
