####
#
# OBJ File Generated by Meshlab
#
####
# Object shambler.obj
#
# Vertices: 144
# Faces: 284
#
####
vn -0.246163 -0.851030 -0.463846
v -0.182843 -0.102758 -0.034351
vn -0.915512 -0.131295 0.380263
v -0.348437 0.006044 0.064886
vn -0.937313 -0.138762 -0.319670
v -0.348437 0.006044 -0.156488
vn -0.057363 -0.872106 0.485944
v -0.162144 -0.096714 -0.087786
vn -0.884262 0.282517 -0.371840
v -0.286339 0.145071 -0.156488
vn -0.874822 0.300064 0.380325
v -0.286339 0.139026 0.057252
vn 0.076418 0.018960 -0.996896
v -0.120745 -0.217606 -0.301527
vn -0.996812 -0.055169 0.057633
v -0.210442 -0.223650 -0.194657
vn -0.032234 0.143414 -0.989138
v -0.175943 -0.024179 -0.286260
vn -0.281465 0.156163 -0.946779
v -0.189743 -0.362676 -0.309160
vn 0.004034 -0.145653 0.989328
v -0.127645 -0.217606 -0.103053
vn -0.962026 0.272225 0.019985
v -0.251840 -0.332453 -0.209923
vn -0.117210 -0.518675 -0.846899
v -0.182843 -0.471479 -0.324427
vn -0.874119 -0.484406 0.035605
v -0.293239 -0.477524 -0.209923
vn -0.045925 -0.566821 0.822560
v -0.175943 -0.477524 -0.110687
vn -0.228800 0.024504 0.973165
v -0.182843 -0.368721 -0.118320
vn -0.382318 -0.061749 0.921966
v -0.210442 0.096714 0.164123
vn -0.780967 0.562380 0.271699
v -0.189743 0.374766 0.087787
vn -0.770968 0.569779 -0.284536
v -0.210442 0.392899 -0.171755
vn -0.010684 0.125906 0.991985
v -0.169043 -0.012089 0.171756
vn -0.714312 -0.204380 0.669319
v -0.175943 0.163204 0.156488
vn -0.936800 0.230961 0.262797
v -0.182843 0.326409 0.141222
vn -0.424552 -0.413666 -0.805379
v -0.196642 0.054401 0.217558
vn 0.072053 0.419709 0.904794
v -0.113845 0.296186 0.286260
vn -0.965532 0.103232 0.238938
v -0.244941 0.102758 0.301527
vn -0.231895 -0.546836 -0.804484
v -0.169043 -0.000001 0.232825
vn 0.020570 0.491929 0.870393
v -0.169043 0.139026 0.332061
vn -0.859903 -0.320811 0.397048
v -0.231141 0.024179 0.339695
vn -0.656167 -0.599624 0.458145
v -0.044848 -0.126937 0.400763
vn -0.046864 -0.597982 -0.800138
v -0.017249 -0.126937 0.332061
vn 0.071795 0.536858 0.840613
v -0.010349 -0.072536 0.416031
vn 0.074261 0.570539 0.817906
v -0.148344 0.102758 0.370230
vn -0.592209 -0.577402 0.562046
v 0.031050 -0.181338 0.446565
vn -0.759355 0.136581 -0.636181
v 0.037949 -0.193427 0.347328
vn -0.707142 -0.684577 0.176932
v 0.031050 -0.217606 0.377863
vn -0.612909 0.620437 -0.489285
v 0.058649 -0.199472 0.293893
vn 0.630209 -0.754008 0.185224
v 0.065548 -0.211561 0.377863
vn 0.646561 -0.698391 0.306936
v 0.086248 -0.229695 0.316795
vn -0.551333 -0.686036 -0.474748
v 0.058649 -0.229695 0.293893
vn 0.157650 -0.904976 -0.395177
v 0.086248 -0.205517 0.416031
vn 0.044357 -0.689538 -0.722890
v 0.134545 -0.205517 0.416031
vn 0.465149 -0.688242 0.556740
v 0.148345 -0.211561 0.454199
vn -0.253814 -0.666911 0.700577
v 0.079347 -0.205517 0.461833
vn 0.682132 0.434162 -0.588387
v 0.231142 -0.126937 0.354963
vn -0.515990 0.832546 0.201551
v 0.051748 -0.084624 0.461833
vn -0.601142 -0.107849 0.791831
v 0.044849 -0.126937 0.492367
vn 0.553686 0.134475 0.821796
v 0.100047 -0.157160 0.461833
vn 0.370679 0.524454 0.766515
v 0.141445 -0.169249 0.454199
vn 0.605169 -0.404356 0.685760
v 0.093147 -0.126937 0.484733
vn -0.539919 0.702120 -0.464237
v 0.093147 -0.054401 0.461833
vn -0.216946 0.601253 0.769045
v 0.100047 -0.048357 0.500000
vn 0.693596 -0.474477 0.542030
v 0.127646 -0.078580 0.484733
vn 0.807291 0.389481 -0.443381
v 0.244942 -0.000001 0.400763
vn 0.745047 0.176673 -0.643189
v 0.162144 -0.193427 0.225191
vn 0.158681 0.785841 0.597725
v -0.065547 0.435211 0.187023
vn -0.082857 0.992885 0.085525
v -0.058647 0.477524 -0.019084
vn 0.296112 0.864670 -0.405788
v -0.044848 0.465434 -0.232824
vn -0.310767 0.043112 -0.949508
v -0.203542 0.102758 -0.263358
vn -0.846195 0.133213 -0.515955
v -0.162144 0.332453 -0.255725
vn -0.537493 -0.275402 -0.797029
v -0.134545 0.193427 -0.255725
vn 0.226387 0.502761 -0.834254
v -0.058647 0.350587 -0.354962
vn 0.159082 0.773164 -0.613931
v -0.065547 0.217606 -0.423664
vn -0.867310 0.058304 -0.494342
v -0.141444 0.151114 -0.431298
vn -0.603623 -0.541886 0.584807
v -0.120745 0.102758 -0.339695
vn 0.321227 0.754845 -0.571859
v -0.017249 0.193427 -0.461832
vn -0.587947 -0.276687 -0.760107
v -0.106946 0.102758 -0.469465
vn -0.457479 -0.727491 0.511341
v -0.093146 0.048357 -0.354962
vn -0.299918 -0.459785 -0.835851
v 0.134545 -0.024179 -0.484733
vn -0.412799 -0.825014 0.385939
v 0.127646 -0.048357 -0.431298
vn 0.017569 -0.456769 -0.889412
v 0.231142 -0.066491 -0.492367
vn 0.276241 0.774842 -0.568605
v 0.175945 0.036267 -0.484733
vn -0.921456 -0.290105 0.258376
v 0.175945 -0.084624 -0.416030
vn -0.293048 -0.768602 -0.568659
v 0.203544 -0.120892 -0.446565
vn -0.482179 -0.863265 0.149253
v 0.189744 -0.132981 -0.377862
vn 0.742251 -0.665348 0.079851
v 0.238042 -0.114848 -0.416030
vn -0.903301 0.402668 0.148006
v 0.182844 -0.090669 -0.385496
vn 0.380613 -0.822300 0.423032
v 0.258741 -0.090669 -0.423664
vn 0.852467 -0.458941 0.250346
v 0.224242 -0.114848 -0.377862
vn 0.095987 0.267579 0.958743
v 0.217343 -0.066491 -0.240458
vn 0.410227 -0.639017 -0.650670
v 0.286340 -0.084624 -0.469465
vn 0.807828 0.397270 -0.435420
v 0.286340 -0.036268 -0.461832
vn 0.791188 -0.568142 -0.226354
v 0.320838 -0.078580 -0.431298
vn -0.248175 -0.719978 0.648105
v 0.286340 -0.078580 -0.400763
vn 0.488901 0.810814 -0.321804
v 0.307039 -0.036268 -0.431298
vn 0.968886 -0.049519 -0.242506
v 0.279440 -0.000001 -0.477099
vn 0.013262 0.024301 -0.999617
v 0.251841 0.006044 -0.500000
vn -0.570035 0.805837 -0.160272
v 0.231142 0.048357 -0.477099
vn -0.907970 0.417260 0.038518
v 0.251841 0.078579 -0.461832
vn 0.232876 0.536228 -0.811313
v 0.279440 0.078579 -0.484733
vn 0.971261 -0.234226 -0.042310
v 0.293240 0.054401 -0.469465
vn 0.210150 0.555345 0.804629
v 0.307039 0.157159 -0.339695
vn 0.392483 0.364819 0.844313
v 0.348437 -0.012089 -0.309160
vn 0.121428 0.083875 0.989050
v -0.086246 -0.205517 0.187023
vn -0.064376 0.225367 0.972145
v -0.120745 -0.356631 0.217558
vn -0.962572 -0.162076 0.217225
v -0.175943 -0.223650 0.110688
vn -0.969819 0.241671 0.032350
v -0.210442 -0.338498 0.118321
vn -0.051898 -0.484103 0.873470
v -0.120745 -0.465434 0.240458
vn -0.075537 -0.228359 -0.970642
v -0.113845 -0.217606 -0.003816
vn -0.235025 0.027654 -0.971596
v -0.134545 -0.362676 0.019084
vn -0.194856 -0.563698 -0.802669
v -0.141444 -0.471479 0.011451
vn -0.869129 -0.482525 0.108557
v -0.238041 -0.465434 0.133588
vn 0.526007 0.450053 0.721643
v 0.024149 0.356631 0.095420
vn 0.756119 -0.299746 0.581754
v 0.003451 0.253873 0.141222
vn 0.518134 -0.288929 0.805020
v 0.058649 0.278051 0.095420
vn 0.774577 0.175493 0.607645
v 0.182844 0.350587 0.064886
vn 0.955859 0.130401 -0.263305
v -0.106946 0.102758 0.263360
vn 0.778061 0.452250 -0.435995
v -0.079347 0.078579 0.270993
vn 0.808340 0.447200 -0.382882
v 0.024149 -0.072536 0.354963
vn 0.744600 0.420705 -0.518246
v 0.086248 -0.132981 0.400763
vn 0.750392 0.379288 -0.541344
v 0.093147 -0.114848 0.431298
vn 0.790681 0.316752 -0.523920
v 0.065548 -0.181338 0.362596
vn 0.633683 0.451803 -0.627949
v 0.113846 -0.157160 0.416031
vn 0.485306 0.843754 0.229255
v 0.079347 -0.199472 0.309161
vn 0.055035 0.811252 -0.582102
v 0.127646 -0.163204 0.423665
vn 0.446481 -0.322504 -0.834653
v 0.113846 -0.078580 0.454199
vn 0.711940 0.445275 -0.543022
v 0.010350 0.368721 -0.164122
vn 0.912458 -0.159310 -0.376883
v -0.003450 0.284096 -0.240458
vn 0.656497 -0.220539 -0.721370
v 0.044849 0.296186 -0.148855
vn 0.775508 0.221824 -0.591085
v 0.175945 0.362676 -0.110687
vn 0.828431 -0.053153 0.557564
v -0.044848 0.169249 -0.339695
vn 0.509051 0.312570 0.801977
v -0.003450 0.139026 -0.347328
vn 0.299253 0.359559 0.883835
v 0.155245 0.006044 -0.423664
vn 0.223365 0.388985 0.893756
v 0.238042 -0.030223 -0.408397
vn 0.185310 0.308298 0.933066
v 0.224242 -0.066491 -0.400763
vn 0.588715 0.681128 0.435293
v 0.217343 -0.084624 -0.385496
vn 0.046936 0.606113 0.793992
v 0.265641 -0.042313 -0.416030
vn 0.352491 0.348172 0.868635
v 0.258741 0.012089 -0.454198
vn -0.534741 0.689494 0.488519
v 0.279440 -0.042313 -0.408397
vn -0.110876 -0.454868 0.883630
v 0.272541 0.060446 -0.454198
vn 0.738498 -0.336137 -0.584493
v -0.010349 0.223651 -0.194657
vn 0.819174 -0.313264 -0.480438
v -0.017249 -0.036268 -0.171755
vn 0.860883 -0.508698 0.010318
v 0.051748 0.163204 -0.034351
vn 0.686187 -0.723378 -0.076633
v 0.155245 0.205516 -0.034351
vn 0.643689 -0.464895 0.607895
v -0.017249 0.199472 0.095420
vn 0.198078 -0.861825 0.466929
v -0.024148 -0.054401 0.064886
vn 0.298661 0.953931 0.028587
v 0.079347 0.477524 -0.026717
vn 0.900871 -0.183043 -0.393609
v -0.031049 -0.054401 -0.179389
vn 0.888344 0.450293 0.089902
v -0.031049 -0.048357 0.080153
vn 0.996473 -0.078743 0.028998
v 0.017250 -0.211561 -0.194657
vn 0.998547 -0.045486 0.028918
v -0.058647 -0.356631 -0.209923
vn 0.919406 -0.388426 -0.061783
v -0.010349 -0.465434 -0.225190
vn 0.993390 0.107070 -0.041377
v 0.044849 -0.181338 0.087787
vn 0.983533 0.067643 -0.167596
v -0.003450 -0.356631 0.095420
vn 0.885039 -0.463861 -0.039230
v 0.044849 -0.477524 0.110688
# 144 vertices, 0 vertices normals

f 1//1 2//2 3//3
f 3//3 4//4 1//1
f 5//5 3//3 6//6
f 7//7 8//8 3//3
f 5//5 9//9 3//3
f 3//3 9//9 7//7
f 4//4 3//3 8//8
f 3//3 2//2 6//6
f 8//8 7//7 10//10
f 11//11 8//8 12//12
f 10//10 12//12 8//8
f 8//8 11//11 4//4
f 12//12 10//10 13//13
f 12//12 14//14 15//15
f 13//13 14//14 12//12
f 12//12 16//16 11//11
f 12//12 15//15 16//16
f 6//6 17//17 18//18
f 18//18 19//19 6//6
f 5//5 6//6 19//19
f 2//2 20//20 6//6
f 20//20 17//17 6//6
f 18//18 17//17 21//21
f 21//21 22//22 18//18
f 22//22 21//21 23//23
f 22//22 24//24 18//18
f 23//23 25//25 22//22
f 24//24 22//22 25//25
f 25//25 23//23 26//26
f 25//25 27//27 24//24
f 27//27 25//25 28//28
f 26//26 28//28 25//25
f 29//29 28//28 26//26
f 26//26 30//30 29//29
f 28//28 29//29 31//31
f 31//31 32//32 28//28
f 28//28 32//32 27//27
f 29//29 33//33 31//31
f 30//30 33//33 29//29
f 33//33 30//30 34//34
f 34//34 35//35 33//33
f 35//35 34//34 36//36
f 33//33 35//35 37//37
f 38//38 37//37 35//35
f 35//35 39//39 38//38
f 37//37 40//40 33//33
f 40//40 41//41 42//42
f 42//42 43//43 40//40
f 40//40 43//43 33//33
f 41//41 44//44 42//42
f 45//45 31//31 33//33
f 46//46 33//33 47//47
f 33//33 43//43 47//47
f 43//43 42//42 48//48
f 48//48 47//47 43//43
f 47//47 49//49 46//46
f 50//50 45//45 46//46
f 33//33 46//46 45//45
f 51//51 46//46 49//49
f 49//49 52//52 51//51
f 52//52 53//53 51//51
f 51//51 53//53 50//50
f 46//46 51//51 50//50
f 42//42 44//44 48//48
f 54//54 38//38 39//39
f 36//36 54//54 39//39
f 36//36 39//39 35//35
f 55//55 18//18 24//24
f 56//56 18//18 55//55
f 56//56 19//19 18//18
f 57//57 19//19 56//56
f 5//5 19//19 58//58
f 19//19 59//59 60//60
f 19//19 57//57 61//61
f 60//60 58//58 19//19
f 61//61 59//59 19//19
f 5//5 58//58 9//9
f 62//62 63//63 59//59
f 59//59 63//63 64//64
f 59//59 61//61 62//62
f 64//64 60//60 59//59
f 63//63 62//62 65//65
f 64//64 63//63 66//66
f 65//65 66//66 63//63
f 66//66 67//67 64//64
f 67//67 66//66 68//68
f 68//68 66//66 65//65
f 68//68 69//69 67//67
f 68//68 70//70 69//69
f 71//71 70//70 68//68
f 65//65 71//71 68//68
f 72//72 69//69 70//70
f 70//70 73//73 72//72
f 74//74 73//73 75//75
f 76//76 72//72 73//73
f 73//73 70//70 77//77
f 77//77 75//75 73//73
f 75//75 78//78 74//74
f 78//78 79//79 74//74
f 74//74 79//79 76//76
f 73//73 74//74 76//76
f 70//70 80//80 77//77
f 81//81 80//80 70//70
f 80//80 82//82 83//83
f 83//83 77//77 80//80
f 82//82 80//80 81//81
f 81//81 84//84 82//82
f 85//85 81//81 70//70
f 70//70 86//86 85//85
f 70//70 71//71 87//87
f 87//87 86//86 70//70
f 88//88 89//89 86//86
f 86//86 89//89 90//90
f 90//90 85//85 86//86
f 86//86 87//87 88//88
f 88//88 91//91 89//89
f 91//91 90//90 89//89
f 84//84 92//92 82//82
f 82//82 92//92 83//83
f 93//93 20//20 2//2
f 94//94 93//93 95//95
f 95//95 96//96 94//94
f 97//97 94//94 96//96
f 95//95 98//98 99//99
f 98//98 95//95 2//2
f 2//2 95//95 93//93
f 99//99 96//96 95//95
f 2//2 1//1 98//98
f 100//100 101//101 96//96
f 96//96 99//99 100//100
f 96//96 101//101 97//97
f 55//55 24//24 102//102
f 102//102 103//103 104//104
f 55//55 102//102 56//56
f 103//103 102//102 24//24
f 102//102 104//104 105//105
f 103//103 24//24 27//27
f 27//27 106//106 103//103
f 106//106 27//27 32//32
f 32//32 107//107 106//106
f 23//23 106//106 107//107
f 107//107 32//32 31//31
f 31//31 108//108 107//107
f 26//26 107//107 108//108
f 107//107 26//26 23//23
f 109//109 31//31 45//45
f 108//108 31//31 109//109
f 30//30 108//108 109//109
f 108//108 30//30 26//26
f 45//45 110//110 109//109
f 47//47 109//109 110//110
f 111//111 109//109 40//40
f 30//30 109//109 111//111
f 109//109 47//47 112//112
f 111//111 34//34 30//30
f 34//34 111//111 113//113
f 113//113 111//111 37//37
f 40//40 37//37 111//111
f 113//113 36//36 34//34
f 54//54 113//113 38//38
f 113//113 54//54 36//36
f 37//37 38//38 113//113
f 40//40 112//112 114//114
f 112//112 47//47 48//48
f 109//109 112//112 40//40
f 48//48 114//114 112//112
f 110//110 49//49 47//47
f 110//110 45//45 50//50
f 50//50 115//115 110//110
f 52//52 115//115 53//53
f 115//115 50//50 53//53
f 49//49 110//110 115//115
f 115//115 52//52 49//49
f 106//106 23//23 21//21
f 21//21 103//103 106//106
f 116//116 57//57 56//56
f 117//117 61//61 116//116
f 118//118 117//117 116//116
f 116//116 119//119 118//118
f 57//57 116//116 61//61
f 120//120 62//62 61//61
f 61//61 117//117 120//120
f 64//64 120//120 117//117
f 120//120 64//64 67//67
f 67//67 121//121 120//120
f 62//62 120//120 121//121
f 121//121 65//65 62//62
f 121//121 67//67 69//69
f 69//69 122//122 121//121
f 65//65 121//121 122//122
f 122//122 71//71 65//65
f 71//71 122//122 123//123
f 122//122 69//69 123//123
f 123//123 69//69 72//72
f 72//72 124//124 123//123
f 124//124 72//72 76//76
f 76//76 125//125 124//124
f 125//125 76//76 79//79
f 75//75 124//124 125//125
f 123//123 126//126 81//81
f 123//123 77//77 126//126
f 71//71 123//123 127//127
f 77//77 123//123 124//124
f 127//127 123//123 81//81
f 81//81 126//126 128//128
f 126//126 77//77 83//83
f 83//83 128//128 126//126
f 128//128 84//84 81//81
f 84//84 128//128 92//92
f 128//128 83//83 92//92
f 87//87 127//127 129//129
f 127//127 87//87 71//71
f 129//129 88//88 87//87
f 85//85 90//90 129//129
f 91//91 129//129 90//90
f 129//129 91//91 88//88
f 129//129 127//127 85//85
f 124//124 75//75 77//77
f 58//58 60//60 117//117
f 117//117 118//118 130//130
f 117//117 130//130 58//58
f 131//131 58//58 130//130
f 131//131 130//130 132//132
f 132//132 130//130 118//118
f 132//132 118//118 133//133
f 133//133 118//118 119//119
f 132//132 104//104 134//134
f 131//131 132//132 135//135
f 104//104 132//132 133//133
f 135//135 132//132 134//134
f 104//104 103//103 134//134
f 105//105 104//104 133//133
f 134//134 103//103 17//17
f 135//135 134//134 17//17
f 21//21 17//17 103//103
f 133//133 119//119 105//105
f 136//136 105//105 119//119
f 131//131 137//137 58//58
f 131//131 138//138 137//137
f 9//9 58//58 137//137
f 139//139 137//137 4//4
f 137//137 7//7 9//9
f 137//137 139//139 7//7
f 10//10 7//7 139//139
f 139//139 140//140 10//10
f 140//140 139//139 11//11
f 4//4 11//11 139//139
f 11//11 16//16 140//140
f 141//141 140//140 16//16
f 141//141 10//10 140//140
f 16//16 15//15 141//141
f 141//141 13//13 10//10
f 138//138 1//1 4//4
f 20//20 138//138 17//17
f 138//138 20//20 142//142
f 4//4 137//137 138//138
f 20//20 93//93 142//142
f 98//98 142//142 143//143
f 142//142 98//98 1//1
f 1//1 138//138 142//142
f 143//143 142//142 93//93
f 93//93 94//94 143//143
f 99//99 143//143 144//144
f 143//143 99//99 98//98
f 144//144 143//143 94//94
f 94//94 97//97 144//144
f 144//144 100//100 99//99
f 138//138 135//135 17//17
f 15//15 14//14 13//13
f 136//136 119//119 116//116
f 116//116 56//56 136//136
f 13//13 141//141 15//15
f 136//136 102//102 105//105
f 136//136 56//56 102//102
f 100//100 97//97 101//101
f 100//100 144//144 97//97
f 131//131 135//135 138//138
f 114//114 41//41 40//40
f 41//41 114//114 44//44
f 114//114 48//48 44//44
f 81//81 85//85 127//127
f 125//125 78//78 75//75
f 78//78 125//125 79//79
f 117//117 60//60 64//64
# 284 faces, 0 coords texture

# End of File
